<mxfile host="app.diagrams.net" modified="2023-02-08T08:25:56.571Z" agent="5.0 (Windows NT 10.0; Win64; x64) AppleWebKit/537.36 (KHTML, like Gecko) Chrome/109.0.0.0 Safari/537.36" etag="9vC18OkXCy-dq-nBQ9_S" version="20.8.18" type="github">
  <diagram name="Page-1" id="e56a1550-8fbb-45ad-956c-1786394a9013">
    <mxGraphModel dx="2630" dy="728" grid="1" gridSize="24" guides="1" tooltips="1" connect="1" arrows="1" fold="1" page="1" pageScale="1" pageWidth="1100" pageHeight="850" background="#1a1919" math="0" shadow="0">
      <root>
        <mxCell id="0" />
        <mxCell id="1" parent="0" />
        <mxCell id="2e49270ec7c68f3f-80" value="products&lt;br&gt;" style="swimlane;html=1;fontStyle=0;childLayout=stackLayout;horizontal=1;startSize=26;fillColor=#EEEEEE;horizontalStack=0;resizeParent=1;resizeLast=0;collapsible=1;marginBottom=0;swimlaneFillColor=#ffffff;align=center;rounded=1;shadow=0;comic=0;labelBackgroundColor=none;strokeWidth=1;fontFamily=Verdana;fontSize=14;strokeColor=#FFFFFF;fontColor=#1A1A1A;" parent="1" vertex="1">
          <mxGeometry x="-360" y="70" width="160" height="144" as="geometry" />
        </mxCell>
        <mxCell id="2e49270ec7c68f3f-81" value="P_ID" style="shape=partialRectangle;top=0;left=0;right=0;bottom=1;html=1;align=left;verticalAlign=middle;fillColor=none;spacingLeft=34;spacingRight=4;whiteSpace=wrap;overflow=hidden;rotatable=0;points=[[0,0.5],[1,0.5]];portConstraint=eastwest;dropTarget=0;fontStyle=5;rounded=1;labelBackgroundColor=none;strokeColor=#FFFFFF;fontColor=#1A1A1A;" parent="2e49270ec7c68f3f-80" vertex="1">
          <mxGeometry y="26" width="160" height="30" as="geometry" />
        </mxCell>
        <mxCell id="2e49270ec7c68f3f-82" value="PK" style="shape=partialRectangle;top=0;left=0;bottom=0;html=1;fillColor=none;align=left;verticalAlign=middle;spacingLeft=4;spacingRight=4;whiteSpace=wrap;overflow=hidden;rotatable=0;points=[];portConstraint=eastwest;part=1;rounded=1;labelBackgroundColor=none;strokeColor=#FFFFFF;fontColor=#1A1A1A;" parent="2e49270ec7c68f3f-81" vertex="1" connectable="0">
          <mxGeometry width="30" height="30" as="geometry" />
        </mxCell>
        <mxCell id="2e49270ec7c68f3f-83" value="p_name" style="shape=partialRectangle;top=0;left=0;right=0;bottom=0;html=1;align=left;verticalAlign=top;fillColor=none;spacingLeft=34;spacingRight=4;whiteSpace=wrap;overflow=hidden;rotatable=0;points=[[0,0.5],[1,0.5]];portConstraint=eastwest;dropTarget=0;rounded=1;labelBackgroundColor=none;strokeColor=#FFFFFF;fontColor=#1A1A1A;" parent="2e49270ec7c68f3f-80" vertex="1">
          <mxGeometry y="56" width="160" height="26" as="geometry" />
        </mxCell>
        <mxCell id="2e49270ec7c68f3f-84" value="" style="shape=partialRectangle;top=0;left=0;bottom=0;html=1;fillColor=none;align=left;verticalAlign=top;spacingLeft=4;spacingRight=4;whiteSpace=wrap;overflow=hidden;rotatable=0;points=[];portConstraint=eastwest;part=1;rounded=1;labelBackgroundColor=none;strokeColor=#FFFFFF;fontColor=#1A1A1A;" parent="2e49270ec7c68f3f-83" vertex="1" connectable="0">
          <mxGeometry width="30" height="26" as="geometry" />
        </mxCell>
        <mxCell id="2e49270ec7c68f3f-85" value="p_price" style="shape=partialRectangle;top=0;left=0;right=0;bottom=0;html=1;align=left;verticalAlign=top;fillColor=none;spacingLeft=34;spacingRight=4;whiteSpace=wrap;overflow=hidden;rotatable=0;points=[[0,0.5],[1,0.5]];portConstraint=eastwest;dropTarget=0;rounded=1;labelBackgroundColor=none;strokeColor=#FFFFFF;fontColor=#1A1A1A;" parent="2e49270ec7c68f3f-80" vertex="1">
          <mxGeometry y="82" width="160" height="26" as="geometry" />
        </mxCell>
        <mxCell id="2e49270ec7c68f3f-86" value="" style="shape=partialRectangle;top=0;left=0;bottom=0;html=1;fillColor=none;align=left;verticalAlign=top;spacingLeft=4;spacingRight=4;whiteSpace=wrap;overflow=hidden;rotatable=0;points=[];portConstraint=eastwest;part=1;rounded=1;labelBackgroundColor=none;strokeColor=#FFFFFF;fontColor=#1A1A1A;" parent="2e49270ec7c68f3f-85" vertex="1" connectable="0">
          <mxGeometry width="30" height="26" as="geometry" />
        </mxCell>
        <mxCell id="2e49270ec7c68f3f-87" value="" style="shape=partialRectangle;top=0;left=0;right=0;bottom=0;html=1;align=left;verticalAlign=top;fillColor=none;spacingLeft=34;spacingRight=4;whiteSpace=wrap;overflow=hidden;rotatable=0;points=[[0,0.5],[1,0.5]];portConstraint=eastwest;dropTarget=0;rounded=1;labelBackgroundColor=none;strokeColor=#FFFFFF;fontColor=#1A1A1A;" parent="2e49270ec7c68f3f-80" vertex="1">
          <mxGeometry y="108" width="160" height="26" as="geometry" />
        </mxCell>
        <mxCell id="2e49270ec7c68f3f-88" value="" style="shape=partialRectangle;top=0;left=0;bottom=0;html=1;fillColor=none;align=left;verticalAlign=top;spacingLeft=4;spacingRight=4;whiteSpace=wrap;overflow=hidden;rotatable=0;points=[];portConstraint=eastwest;part=1;rounded=1;labelBackgroundColor=none;strokeColor=#FFFFFF;fontColor=#1A1A1A;" parent="2e49270ec7c68f3f-87" vertex="1" connectable="0">
          <mxGeometry width="30" height="26" as="geometry" />
        </mxCell>
        <mxCell id="2e49270ec7c68f3f-89" value="" style="shape=partialRectangle;top=0;left=0;right=0;bottom=0;html=1;align=left;verticalAlign=top;fillColor=none;spacingLeft=34;spacingRight=4;whiteSpace=wrap;overflow=hidden;rotatable=0;points=[[0,0.5],[1,0.5]];portConstraint=eastwest;dropTarget=0;rounded=1;labelBackgroundColor=none;strokeColor=#FFFFFF;fontColor=#1A1A1A;" parent="2e49270ec7c68f3f-80" vertex="1">
          <mxGeometry y="134" width="160" height="10" as="geometry" />
        </mxCell>
        <mxCell id="2e49270ec7c68f3f-90" value="" style="shape=partialRectangle;top=0;left=0;bottom=0;html=1;fillColor=none;align=left;verticalAlign=top;spacingLeft=4;spacingRight=4;whiteSpace=wrap;overflow=hidden;rotatable=0;points=[];portConstraint=eastwest;part=1;rounded=1;labelBackgroundColor=none;strokeColor=#FFFFFF;fontColor=#1A1A1A;" parent="2e49270ec7c68f3f-89" vertex="1" connectable="0">
          <mxGeometry width="30" height="10" as="geometry" />
        </mxCell>
        <mxCell id="abnOiXNKgmM2XyNFH_qa-4" value="&amp;nbsp; member&lt;span style=&quot;white-space: pre;&quot;&gt;	&lt;/span&gt;" style="swimlane;html=1;fontStyle=0;childLayout=stackLayout;horizontal=1;startSize=26;fillColor=#EEEEEE;horizontalStack=0;resizeParent=1;resizeLast=0;collapsible=1;marginBottom=0;swimlaneFillColor=#ffffff;align=center;rounded=1;shadow=0;comic=0;labelBackgroundColor=none;strokeWidth=1;fontFamily=Verdana;fontSize=14;strokeColor=#FFFFFF;fontColor=#1A1A1A;" vertex="1" parent="1">
          <mxGeometry x="-360" y="242" width="160" height="144" as="geometry" />
        </mxCell>
        <mxCell id="abnOiXNKgmM2XyNFH_qa-5" value="m_ID" style="shape=partialRectangle;top=0;left=0;right=0;bottom=1;html=1;align=left;verticalAlign=middle;fillColor=none;spacingLeft=34;spacingRight=4;whiteSpace=wrap;overflow=hidden;rotatable=0;points=[[0,0.5],[1,0.5]];portConstraint=eastwest;dropTarget=0;fontStyle=5;strokeColor=#FFFFFF;rounded=1;labelBackgroundColor=none;fontColor=#1A1A1A;" vertex="1" parent="abnOiXNKgmM2XyNFH_qa-4">
          <mxGeometry y="26" width="160" height="30" as="geometry" />
        </mxCell>
        <mxCell id="abnOiXNKgmM2XyNFH_qa-6" value="PK" style="shape=partialRectangle;top=0;left=0;bottom=0;html=1;fillColor=none;align=left;verticalAlign=middle;spacingLeft=4;spacingRight=4;whiteSpace=wrap;overflow=hidden;rotatable=0;points=[];portConstraint=eastwest;part=1;rounded=1;labelBackgroundColor=none;strokeColor=#FFFFFF;fontColor=#1A1A1A;" vertex="1" connectable="0" parent="abnOiXNKgmM2XyNFH_qa-5">
          <mxGeometry width="30" height="30" as="geometry" />
        </mxCell>
        <mxCell id="abnOiXNKgmM2XyNFH_qa-7" value="m_name" style="shape=partialRectangle;top=0;left=0;right=0;bottom=0;html=1;align=left;verticalAlign=top;fillColor=none;spacingLeft=34;spacingRight=4;whiteSpace=wrap;overflow=hidden;rotatable=0;points=[[0,0.5],[1,0.5]];portConstraint=eastwest;dropTarget=0;strokeColor=#FFFFFF;rounded=1;labelBackgroundColor=none;fontColor=#1A1A1A;" vertex="1" parent="abnOiXNKgmM2XyNFH_qa-4">
          <mxGeometry y="56" width="160" height="26" as="geometry" />
        </mxCell>
        <mxCell id="abnOiXNKgmM2XyNFH_qa-8" value="" style="shape=partialRectangle;top=0;left=0;bottom=0;html=1;fillColor=none;align=left;verticalAlign=top;spacingLeft=4;spacingRight=4;whiteSpace=wrap;overflow=hidden;rotatable=0;points=[];portConstraint=eastwest;part=1;rounded=1;labelBackgroundColor=none;strokeColor=#FFFFFF;fontColor=#1A1A1A;" vertex="1" connectable="0" parent="abnOiXNKgmM2XyNFH_qa-7">
          <mxGeometry width="30" height="26" as="geometry" />
        </mxCell>
        <mxCell id="abnOiXNKgmM2XyNFH_qa-9" value="m_add&lt;br&gt;" style="shape=partialRectangle;top=0;left=0;right=0;bottom=0;html=1;align=left;verticalAlign=top;fillColor=none;spacingLeft=34;spacingRight=4;whiteSpace=wrap;overflow=hidden;rotatable=0;points=[[0,0.5],[1,0.5]];portConstraint=eastwest;dropTarget=0;rounded=1;labelBackgroundColor=none;strokeColor=#FFFFFF;fontColor=#1A1A1A;" vertex="1" parent="abnOiXNKgmM2XyNFH_qa-4">
          <mxGeometry y="82" width="160" height="26" as="geometry" />
        </mxCell>
        <mxCell id="abnOiXNKgmM2XyNFH_qa-10" value="" style="shape=partialRectangle;top=0;left=0;bottom=0;html=1;fillColor=none;align=left;verticalAlign=top;spacingLeft=4;spacingRight=4;whiteSpace=wrap;overflow=hidden;rotatable=0;points=[];portConstraint=eastwest;part=1;rounded=1;labelBackgroundColor=none;strokeColor=#FFFFFF;fontColor=#1A1A1A;" vertex="1" connectable="0" parent="abnOiXNKgmM2XyNFH_qa-9">
          <mxGeometry width="30" height="26" as="geometry" />
        </mxCell>
        <mxCell id="abnOiXNKgmM2XyNFH_qa-11" value="m_phone" style="shape=partialRectangle;top=0;left=0;right=0;bottom=0;html=1;align=left;verticalAlign=top;fillColor=none;spacingLeft=34;spacingRight=4;whiteSpace=wrap;overflow=hidden;rotatable=0;points=[[0,0.5],[1,0.5]];portConstraint=eastwest;dropTarget=0;rounded=1;labelBackgroundColor=none;strokeColor=#FFFFFF;fontColor=#1A1A1A;" vertex="1" parent="abnOiXNKgmM2XyNFH_qa-4">
          <mxGeometry y="108" width="160" height="26" as="geometry" />
        </mxCell>
        <mxCell id="abnOiXNKgmM2XyNFH_qa-12" value="" style="shape=partialRectangle;top=0;left=0;bottom=0;html=1;fillColor=none;align=left;verticalAlign=top;spacingLeft=4;spacingRight=4;whiteSpace=wrap;overflow=hidden;rotatable=0;points=[];portConstraint=eastwest;part=1;rounded=1;labelBackgroundColor=none;strokeColor=#FFFFFF;fontColor=#1A1A1A;" vertex="1" connectable="0" parent="abnOiXNKgmM2XyNFH_qa-11">
          <mxGeometry width="30" height="26" as="geometry" />
        </mxCell>
        <mxCell id="abnOiXNKgmM2XyNFH_qa-13" value="" style="shape=partialRectangle;top=0;left=0;right=0;bottom=0;html=1;align=left;verticalAlign=top;fillColor=none;spacingLeft=34;spacingRight=4;whiteSpace=wrap;overflow=hidden;rotatable=0;points=[[0,0.5],[1,0.5]];portConstraint=eastwest;dropTarget=0;rounded=1;labelBackgroundColor=none;strokeColor=#FFFFFF;fontColor=#1A1A1A;" vertex="1" parent="abnOiXNKgmM2XyNFH_qa-4">
          <mxGeometry y="134" width="160" height="10" as="geometry" />
        </mxCell>
        <mxCell id="abnOiXNKgmM2XyNFH_qa-14" value="" style="shape=partialRectangle;top=0;left=0;bottom=0;html=1;fillColor=none;align=left;verticalAlign=top;spacingLeft=4;spacingRight=4;whiteSpace=wrap;overflow=hidden;rotatable=0;points=[];portConstraint=eastwest;part=1;rounded=1;labelBackgroundColor=none;strokeColor=#FFFFFF;fontColor=#1A1A1A;" vertex="1" connectable="0" parent="abnOiXNKgmM2XyNFH_qa-13">
          <mxGeometry width="30" height="10" as="geometry" />
        </mxCell>
        <mxCell id="abnOiXNKgmM2XyNFH_qa-15" value="Employees" style="swimlane;html=1;fontStyle=0;childLayout=stackLayout;horizontal=1;startSize=26;fillColor=#EEEEEE;horizontalStack=0;resizeParent=1;resizeLast=0;collapsible=1;marginBottom=0;swimlaneFillColor=#ffffff;align=center;rounded=1;shadow=0;comic=0;labelBackgroundColor=none;strokeWidth=1;fontFamily=Verdana;fontSize=14;strokeColor=#FFFFFF;fontColor=#1A1A1A;" vertex="1" parent="1">
          <mxGeometry x="-360" y="425" width="160" height="144" as="geometry" />
        </mxCell>
        <mxCell id="abnOiXNKgmM2XyNFH_qa-16" value="E_ID" style="shape=partialRectangle;top=0;left=0;right=0;bottom=1;html=1;align=left;verticalAlign=middle;fillColor=none;spacingLeft=34;spacingRight=4;whiteSpace=wrap;overflow=hidden;rotatable=0;points=[[0,0.5],[1,0.5]];portConstraint=eastwest;dropTarget=0;fontStyle=5;rounded=1;labelBackgroundColor=none;strokeColor=#FFFFFF;fontColor=#1A1A1A;" vertex="1" parent="abnOiXNKgmM2XyNFH_qa-15">
          <mxGeometry y="26" width="160" height="30" as="geometry" />
        </mxCell>
        <mxCell id="abnOiXNKgmM2XyNFH_qa-17" value="PK" style="shape=partialRectangle;top=0;left=0;bottom=0;html=1;fillColor=none;align=left;verticalAlign=middle;spacingLeft=4;spacingRight=4;whiteSpace=wrap;overflow=hidden;rotatable=0;points=[];portConstraint=eastwest;part=1;rounded=1;labelBackgroundColor=none;strokeColor=#FFFFFF;fontColor=#1A1A1A;" vertex="1" connectable="0" parent="abnOiXNKgmM2XyNFH_qa-16">
          <mxGeometry width="30" height="30" as="geometry" />
        </mxCell>
        <mxCell id="abnOiXNKgmM2XyNFH_qa-18" value="E_add" style="shape=partialRectangle;top=0;left=0;right=0;bottom=0;html=1;align=left;verticalAlign=top;fillColor=none;spacingLeft=34;spacingRight=4;whiteSpace=wrap;overflow=hidden;rotatable=0;points=[[0,0.5],[1,0.5]];portConstraint=eastwest;dropTarget=0;rounded=1;labelBackgroundColor=none;strokeColor=#FFFFFF;fontColor=#1A1A1A;" vertex="1" parent="abnOiXNKgmM2XyNFH_qa-15">
          <mxGeometry y="56" width="160" height="26" as="geometry" />
        </mxCell>
        <mxCell id="abnOiXNKgmM2XyNFH_qa-19" value="" style="shape=partialRectangle;top=0;left=0;bottom=0;html=1;fillColor=none;align=left;verticalAlign=top;spacingLeft=4;spacingRight=4;whiteSpace=wrap;overflow=hidden;rotatable=0;points=[];portConstraint=eastwest;part=1;rounded=1;labelBackgroundColor=none;strokeColor=#FFFFFF;fontColor=#1A1A1A;" vertex="1" connectable="0" parent="abnOiXNKgmM2XyNFH_qa-18">
          <mxGeometry width="30" height="26" as="geometry" />
        </mxCell>
        <mxCell id="abnOiXNKgmM2XyNFH_qa-20" value="E_phone" style="shape=partialRectangle;top=0;left=0;right=0;bottom=0;html=1;align=left;verticalAlign=top;fillColor=none;spacingLeft=34;spacingRight=4;whiteSpace=wrap;overflow=hidden;rotatable=0;points=[[0,0.5],[1,0.5]];portConstraint=eastwest;dropTarget=0;rounded=1;labelBackgroundColor=none;strokeColor=#FFFFFF;fontColor=#1A1A1A;" vertex="1" parent="abnOiXNKgmM2XyNFH_qa-15">
          <mxGeometry y="82" width="160" height="26" as="geometry" />
        </mxCell>
        <mxCell id="abnOiXNKgmM2XyNFH_qa-21" value="" style="shape=partialRectangle;top=0;left=0;bottom=0;html=1;fillColor=none;align=left;verticalAlign=top;spacingLeft=4;spacingRight=4;whiteSpace=wrap;overflow=hidden;rotatable=0;points=[];portConstraint=eastwest;part=1;rounded=1;labelBackgroundColor=none;strokeColor=#FFFFFF;fontColor=#1A1A1A;" vertex="1" connectable="0" parent="abnOiXNKgmM2XyNFH_qa-20">
          <mxGeometry width="30" height="26" as="geometry" />
        </mxCell>
        <mxCell id="abnOiXNKgmM2XyNFH_qa-22" value="E_name" style="shape=partialRectangle;top=0;left=0;right=0;bottom=0;html=1;align=left;verticalAlign=top;fillColor=none;spacingLeft=34;spacingRight=4;whiteSpace=wrap;overflow=hidden;rotatable=0;points=[[0,0.5],[1,0.5]];portConstraint=eastwest;dropTarget=0;rounded=1;labelBackgroundColor=none;strokeColor=#FFFFFF;fontColor=#1A1A1A;" vertex="1" parent="abnOiXNKgmM2XyNFH_qa-15">
          <mxGeometry y="108" width="160" height="26" as="geometry" />
        </mxCell>
        <mxCell id="abnOiXNKgmM2XyNFH_qa-23" value="" style="shape=partialRectangle;top=0;left=0;bottom=0;html=1;fillColor=none;align=left;verticalAlign=top;spacingLeft=4;spacingRight=4;whiteSpace=wrap;overflow=hidden;rotatable=0;points=[];portConstraint=eastwest;part=1;rounded=1;labelBackgroundColor=none;strokeColor=#FFFFFF;fontColor=#1A1A1A;" vertex="1" connectable="0" parent="abnOiXNKgmM2XyNFH_qa-22">
          <mxGeometry width="30" height="26" as="geometry" />
        </mxCell>
        <mxCell id="abnOiXNKgmM2XyNFH_qa-24" value="" style="shape=partialRectangle;top=0;left=0;right=0;bottom=0;html=1;align=left;verticalAlign=top;fillColor=none;spacingLeft=34;spacingRight=4;whiteSpace=wrap;overflow=hidden;rotatable=0;points=[[0,0.5],[1,0.5]];portConstraint=eastwest;dropTarget=0;rounded=1;labelBackgroundColor=none;strokeColor=#FFFFFF;fontColor=#1A1A1A;" vertex="1" parent="abnOiXNKgmM2XyNFH_qa-15">
          <mxGeometry y="134" width="160" height="10" as="geometry" />
        </mxCell>
        <mxCell id="abnOiXNKgmM2XyNFH_qa-25" value="" style="shape=partialRectangle;top=0;left=0;bottom=0;html=1;fillColor=none;align=left;verticalAlign=top;spacingLeft=4;spacingRight=4;whiteSpace=wrap;overflow=hidden;rotatable=0;points=[];portConstraint=eastwest;part=1;rounded=1;labelBackgroundColor=none;strokeColor=#FFFFFF;fontColor=#1A1A1A;" vertex="1" connectable="0" parent="abnOiXNKgmM2XyNFH_qa-24">
          <mxGeometry width="30" height="10" as="geometry" />
        </mxCell>
        <mxCell id="abnOiXNKgmM2XyNFH_qa-26" value="Salary" style="swimlane;html=1;fontStyle=0;childLayout=stackLayout;horizontal=1;startSize=26;fillColor=#EEEEEE;horizontalStack=0;resizeParent=1;resizeLast=0;collapsible=1;marginBottom=0;swimlaneFillColor=#ffffff;align=center;rounded=1;shadow=0;comic=0;labelBackgroundColor=none;strokeWidth=1;fontFamily=Verdana;fontSize=14;strokeColor=#FFFFFF;fontColor=#1A1A1A;" vertex="1" parent="1">
          <mxGeometry x="-360" y="590" width="160" height="144" as="geometry" />
        </mxCell>
        <mxCell id="abnOiXNKgmM2XyNFH_qa-27" value="E_ID" style="shape=partialRectangle;top=0;left=0;right=0;bottom=1;html=1;align=left;verticalAlign=middle;fillColor=none;spacingLeft=34;spacingRight=4;whiteSpace=wrap;overflow=hidden;rotatable=0;points=[[0,0.5],[1,0.5]];portConstraint=eastwest;dropTarget=0;fontStyle=5;rounded=1;labelBackgroundColor=none;strokeColor=#FFFFFF;fontColor=#1A1A1A;" vertex="1" parent="abnOiXNKgmM2XyNFH_qa-26">
          <mxGeometry y="26" width="160" height="30" as="geometry" />
        </mxCell>
        <mxCell id="abnOiXNKgmM2XyNFH_qa-28" value="PK" style="shape=partialRectangle;top=0;left=0;bottom=0;html=1;fillColor=none;align=left;verticalAlign=middle;spacingLeft=4;spacingRight=4;whiteSpace=wrap;overflow=hidden;rotatable=0;points=[];portConstraint=eastwest;part=1;rounded=1;labelBackgroundColor=none;strokeColor=#FFFFFF;fontColor=#1A1A1A;" vertex="1" connectable="0" parent="abnOiXNKgmM2XyNFH_qa-27">
          <mxGeometry width="30" height="30" as="geometry" />
        </mxCell>
        <mxCell id="abnOiXNKgmM2XyNFH_qa-31" value="E_name" style="shape=partialRectangle;top=0;left=0;right=0;bottom=0;html=1;align=left;verticalAlign=top;fillColor=none;spacingLeft=34;spacingRight=4;whiteSpace=wrap;overflow=hidden;rotatable=0;points=[[0,0.5],[1,0.5]];portConstraint=eastwest;dropTarget=0;rounded=1;labelBackgroundColor=none;strokeColor=#FFFFFF;fontColor=#1A1A1A;" vertex="1" parent="abnOiXNKgmM2XyNFH_qa-26">
          <mxGeometry y="56" width="160" height="26" as="geometry" />
        </mxCell>
        <mxCell id="abnOiXNKgmM2XyNFH_qa-32" value="FK" style="shape=partialRectangle;top=0;left=0;bottom=0;html=1;fillColor=none;align=left;verticalAlign=top;spacingLeft=4;spacingRight=4;whiteSpace=wrap;overflow=hidden;rotatable=0;points=[];portConstraint=eastwest;part=1;rounded=1;labelBackgroundColor=none;strokeColor=#FFFFFF;fontColor=#1A1A1A;" vertex="1" connectable="0" parent="abnOiXNKgmM2XyNFH_qa-31">
          <mxGeometry width="30" height="26" as="geometry" />
        </mxCell>
        <mxCell id="abnOiXNKgmM2XyNFH_qa-29" value="Salary" style="shape=partialRectangle;top=0;left=0;right=0;bottom=0;html=1;align=left;verticalAlign=top;fillColor=none;spacingLeft=34;spacingRight=4;whiteSpace=wrap;overflow=hidden;rotatable=0;points=[[0,0.5],[1,0.5]];portConstraint=eastwest;dropTarget=0;rounded=1;labelBackgroundColor=none;strokeColor=#FFFFFF;fontColor=#1A1A1A;" vertex="1" parent="abnOiXNKgmM2XyNFH_qa-26">
          <mxGeometry y="82" width="160" height="26" as="geometry" />
        </mxCell>
        <mxCell id="abnOiXNKgmM2XyNFH_qa-30" value="" style="shape=partialRectangle;top=0;left=0;bottom=0;html=1;fillColor=none;align=left;verticalAlign=top;spacingLeft=4;spacingRight=4;whiteSpace=wrap;overflow=hidden;rotatable=0;points=[];portConstraint=eastwest;part=1;rounded=1;labelBackgroundColor=none;strokeColor=#FFFFFF;fontColor=#1A1A1A;" vertex="1" connectable="0" parent="abnOiXNKgmM2XyNFH_qa-29">
          <mxGeometry width="30" height="26" as="geometry" />
        </mxCell>
        <mxCell id="abnOiXNKgmM2XyNFH_qa-33" value="" style="shape=partialRectangle;top=0;left=0;right=0;bottom=0;html=1;align=left;verticalAlign=top;fillColor=none;spacingLeft=34;spacingRight=4;whiteSpace=wrap;overflow=hidden;rotatable=0;points=[[0,0.5],[1,0.5]];portConstraint=eastwest;dropTarget=0;rounded=1;labelBackgroundColor=none;strokeColor=#FFFFFF;fontColor=#1A1A1A;" vertex="1" parent="abnOiXNKgmM2XyNFH_qa-26">
          <mxGeometry y="108" width="160" height="26" as="geometry" />
        </mxCell>
        <mxCell id="abnOiXNKgmM2XyNFH_qa-34" value="" style="shape=partialRectangle;top=0;left=0;bottom=0;html=1;fillColor=none;align=left;verticalAlign=top;spacingLeft=4;spacingRight=4;whiteSpace=wrap;overflow=hidden;rotatable=0;points=[];portConstraint=eastwest;part=1;rounded=1;labelBackgroundColor=none;strokeColor=#FFFFFF;fontColor=#1A1A1A;" vertex="1" connectable="0" parent="abnOiXNKgmM2XyNFH_qa-33">
          <mxGeometry width="30" height="26" as="geometry" />
        </mxCell>
        <mxCell id="abnOiXNKgmM2XyNFH_qa-35" value="" style="shape=partialRectangle;top=0;left=0;right=0;bottom=0;html=1;align=left;verticalAlign=top;fillColor=none;spacingLeft=34;spacingRight=4;whiteSpace=wrap;overflow=hidden;rotatable=0;points=[[0,0.5],[1,0.5]];portConstraint=eastwest;dropTarget=0;rounded=1;labelBackgroundColor=none;strokeColor=#FFFFFF;fontColor=#1A1A1A;" vertex="1" parent="abnOiXNKgmM2XyNFH_qa-26">
          <mxGeometry y="134" width="160" height="10" as="geometry" />
        </mxCell>
        <mxCell id="abnOiXNKgmM2XyNFH_qa-36" value="" style="shape=partialRectangle;top=0;left=0;bottom=0;html=1;fillColor=none;align=left;verticalAlign=top;spacingLeft=4;spacingRight=4;whiteSpace=wrap;overflow=hidden;rotatable=0;points=[];portConstraint=eastwest;part=1;rounded=1;labelBackgroundColor=none;strokeColor=#FFFFFF;fontColor=#1A1A1A;" vertex="1" connectable="0" parent="abnOiXNKgmM2XyNFH_qa-35">
          <mxGeometry width="30" height="10" as="geometry" />
        </mxCell>
        <mxCell id="abnOiXNKgmM2XyNFH_qa-37" value="Suppliers" style="swimlane;html=1;fontStyle=0;childLayout=stackLayout;horizontal=1;startSize=26;fillColor=#EEEEEE;horizontalStack=0;resizeParent=1;resizeLast=0;collapsible=1;marginBottom=0;swimlaneFillColor=#ffffff;align=center;rounded=1;shadow=0;comic=0;labelBackgroundColor=none;strokeWidth=1;fontFamily=Verdana;fontSize=14;strokeColor=#FFFFFF;fontColor=#1A1A1A;" vertex="1" parent="1">
          <mxGeometry x="10" y="65" width="220" height="175" as="geometry">
            <mxRectangle x="10" y="65" width="110" height="30" as="alternateBounds" />
          </mxGeometry>
        </mxCell>
        <mxCell id="abnOiXNKgmM2XyNFH_qa-38" value="S_ID" style="shape=partialRectangle;top=0;left=0;right=0;bottom=1;html=1;align=left;verticalAlign=middle;fillColor=none;spacingLeft=34;spacingRight=4;whiteSpace=wrap;overflow=hidden;rotatable=0;points=[[0,0.5],[1,0.5]];portConstraint=eastwest;dropTarget=0;fontStyle=5;rounded=1;labelBackgroundColor=none;strokeColor=#FFFFFF;fontColor=#1A1A1A;" vertex="1" parent="abnOiXNKgmM2XyNFH_qa-37">
          <mxGeometry y="26" width="220" height="30" as="geometry" />
        </mxCell>
        <mxCell id="abnOiXNKgmM2XyNFH_qa-39" value="PK" style="shape=partialRectangle;top=0;left=0;bottom=0;html=1;fillColor=none;align=left;verticalAlign=middle;spacingLeft=4;spacingRight=4;whiteSpace=wrap;overflow=hidden;rotatable=0;points=[];portConstraint=eastwest;part=1;rounded=1;labelBackgroundColor=none;strokeColor=#FFFFFF;fontColor=#1A1A1A;" vertex="1" connectable="0" parent="abnOiXNKgmM2XyNFH_qa-38">
          <mxGeometry width="30" height="30" as="geometry" />
        </mxCell>
        <mxCell id="abnOiXNKgmM2XyNFH_qa-40" value="S_Add" style="shape=partialRectangle;top=0;left=0;right=0;bottom=0;html=1;align=left;verticalAlign=top;fillColor=none;spacingLeft=34;spacingRight=4;whiteSpace=wrap;overflow=hidden;rotatable=0;points=[[0,0.5],[1,0.5]];portConstraint=eastwest;dropTarget=0;rounded=1;labelBackgroundColor=none;strokeColor=#FFFFFF;fontColor=#1A1A1A;" vertex="1" parent="abnOiXNKgmM2XyNFH_qa-37">
          <mxGeometry y="56" width="220" height="26" as="geometry" />
        </mxCell>
        <mxCell id="abnOiXNKgmM2XyNFH_qa-41" value="" style="shape=partialRectangle;top=0;left=0;bottom=0;html=1;fillColor=none;align=left;verticalAlign=top;spacingLeft=4;spacingRight=4;whiteSpace=wrap;overflow=hidden;rotatable=0;points=[];portConstraint=eastwest;part=1;rounded=1;labelBackgroundColor=none;strokeColor=#FFFFFF;fontColor=#1A1A1A;" vertex="1" connectable="0" parent="abnOiXNKgmM2XyNFH_qa-40">
          <mxGeometry width="30" height="26" as="geometry" />
        </mxCell>
        <mxCell id="abnOiXNKgmM2XyNFH_qa-42" value="S_Phone" style="shape=partialRectangle;top=0;left=0;right=0;bottom=0;html=1;align=left;verticalAlign=top;fillColor=none;spacingLeft=34;spacingRight=4;whiteSpace=wrap;overflow=hidden;rotatable=0;points=[[0,0.5],[1,0.5]];portConstraint=eastwest;dropTarget=0;rounded=1;labelBackgroundColor=default;strokeColor=#FFFFFF;fontColor=#1A1A1A;" vertex="1" parent="abnOiXNKgmM2XyNFH_qa-37">
          <mxGeometry y="82" width="220" height="26" as="geometry" />
        </mxCell>
        <mxCell id="abnOiXNKgmM2XyNFH_qa-43" value="" style="shape=partialRectangle;top=0;left=0;bottom=0;html=1;fillColor=none;align=left;verticalAlign=top;spacingLeft=4;spacingRight=4;whiteSpace=wrap;overflow=hidden;rotatable=0;points=[];portConstraint=eastwest;part=1;rounded=1;labelBackgroundColor=none;strokeColor=#FFFFFF;fontColor=#1A1A1A;" vertex="1" connectable="0" parent="abnOiXNKgmM2XyNFH_qa-42">
          <mxGeometry width="30" height="26" as="geometry" />
        </mxCell>
        <mxCell id="abnOiXNKgmM2XyNFH_qa-44" value="S_CompanyName" style="shape=partialRectangle;top=0;left=0;right=0;bottom=0;html=1;align=left;verticalAlign=top;fillColor=none;spacingLeft=34;spacingRight=4;whiteSpace=wrap;overflow=hidden;rotatable=0;points=[[0,0.5],[1,0.5]];portConstraint=eastwest;dropTarget=0;rounded=1;labelBackgroundColor=none;strokeColor=#FFFFFF;fontColor=#1A1A1A;" vertex="1" parent="abnOiXNKgmM2XyNFH_qa-37">
          <mxGeometry y="108" width="220" height="22" as="geometry" />
        </mxCell>
        <mxCell id="abnOiXNKgmM2XyNFH_qa-45" value="" style="shape=partialRectangle;top=0;left=0;bottom=0;html=1;fillColor=none;align=left;verticalAlign=top;spacingLeft=4;spacingRight=4;whiteSpace=wrap;overflow=hidden;rotatable=0;points=[];portConstraint=eastwest;part=1;rounded=1;labelBackgroundColor=none;strokeColor=#FFFFFF;fontColor=#1A1A1A;" vertex="1" connectable="0" parent="abnOiXNKgmM2XyNFH_qa-44">
          <mxGeometry width="30" height="22" as="geometry" />
        </mxCell>
        <mxCell id="abnOiXNKgmM2XyNFH_qa-46" value="S_Name" style="shape=partialRectangle;top=0;left=0;right=0;bottom=0;html=1;align=left;verticalAlign=top;fillColor=none;spacingLeft=34;spacingRight=4;whiteSpace=wrap;overflow=hidden;rotatable=1;points=[[0,0.5],[1,0.5]];portConstraint=eastwest;dropTarget=0;movable=1;resizable=1;deletable=1;editable=1;locked=0;connectable=1;rounded=1;labelBackgroundColor=none;strokeColor=#FFFFFF;fontColor=#1A1A1A;" vertex="1" parent="abnOiXNKgmM2XyNFH_qa-37">
          <mxGeometry y="130" width="220" height="20" as="geometry" />
        </mxCell>
        <mxCell id="abnOiXNKgmM2XyNFH_qa-47" value="" style="shape=partialRectangle;top=0;left=0;bottom=0;html=1;fillColor=none;align=left;verticalAlign=top;spacingLeft=4;spacingRight=4;whiteSpace=wrap;overflow=hidden;rotatable=0;points=[];portConstraint=eastwest;part=1;rounded=1;labelBackgroundColor=none;strokeColor=#FFFFFF;fontColor=#1A1A1A;" vertex="1" connectable="0" parent="abnOiXNKgmM2XyNFH_qa-46">
          <mxGeometry width="30" height="20" as="geometry" />
        </mxCell>
        <mxCell id="abnOiXNKgmM2XyNFH_qa-48" value="S_ContactTitle" style="shape=partialRectangle;top=0;left=0;right=0;bottom=0;html=1;align=left;verticalAlign=top;fillColor=none;spacingLeft=34;spacingRight=4;whiteSpace=wrap;overflow=hidden;rotatable=1;points=[[0,0.5],[1,0.5]];portConstraint=eastwest;dropTarget=0;movable=1;resizable=1;deletable=1;editable=1;locked=0;connectable=1;rounded=1;labelBackgroundColor=none;strokeColor=#FFFFFF;fontColor=#1A1A1A;" vertex="1" parent="abnOiXNKgmM2XyNFH_qa-37">
          <mxGeometry y="150" width="220" height="20" as="geometry" />
        </mxCell>
        <mxCell id="abnOiXNKgmM2XyNFH_qa-49" value="" style="shape=partialRectangle;top=0;left=0;bottom=0;html=1;fillColor=none;align=left;verticalAlign=top;spacingLeft=4;spacingRight=4;whiteSpace=wrap;overflow=hidden;rotatable=0;points=[];portConstraint=eastwest;part=1;rounded=1;labelBackgroundColor=none;strokeColor=#FFFFFF;fontColor=#1A1A1A;" vertex="1" connectable="0" parent="abnOiXNKgmM2XyNFH_qa-48">
          <mxGeometry width="30" height="20" as="geometry" />
        </mxCell>
        <mxCell id="abnOiXNKgmM2XyNFH_qa-53" value="Material" style="swimlane;html=1;fontStyle=0;childLayout=stackLayout;horizontal=1;startSize=26;fillColor=#EEEEEE;horizontalStack=0;resizeParent=1;resizeLast=0;collapsible=1;marginBottom=0;swimlaneFillColor=#ffffff;align=center;rounded=1;shadow=0;comic=0;labelBackgroundColor=none;strokeWidth=1;fontFamily=Verdana;fontSize=14;strokeColor=#FFFFFF;fontColor=#1A1A1A;" vertex="1" parent="1">
          <mxGeometry x="30" y="320" width="160" height="160" as="geometry" />
        </mxCell>
        <mxCell id="abnOiXNKgmM2XyNFH_qa-54" value="Ma_id" style="shape=partialRectangle;top=0;left=0;right=0;bottom=1;html=1;align=left;verticalAlign=middle;fillColor=none;spacingLeft=34;spacingRight=4;whiteSpace=wrap;overflow=hidden;rotatable=0;points=[[0,0.5],[1,0.5]];portConstraint=eastwest;dropTarget=0;fontStyle=5;rounded=1;labelBackgroundColor=none;strokeColor=#FFFFFF;fontColor=#1A1A1A;" vertex="1" parent="abnOiXNKgmM2XyNFH_qa-53">
          <mxGeometry y="26" width="160" height="30" as="geometry" />
        </mxCell>
        <mxCell id="abnOiXNKgmM2XyNFH_qa-55" value="PK" style="shape=partialRectangle;top=0;left=0;bottom=0;html=1;fillColor=none;align=left;verticalAlign=middle;spacingLeft=4;spacingRight=4;whiteSpace=wrap;overflow=hidden;rotatable=0;points=[];portConstraint=eastwest;part=1;rounded=1;labelBackgroundColor=none;strokeColor=#FFFFFF;fontColor=#1A1A1A;" vertex="1" connectable="0" parent="abnOiXNKgmM2XyNFH_qa-54">
          <mxGeometry width="30" height="30" as="geometry" />
        </mxCell>
        <mxCell id="abnOiXNKgmM2XyNFH_qa-56" value="S_ID" style="shape=partialRectangle;top=0;left=0;right=0;bottom=0;html=1;align=left;verticalAlign=top;fillColor=none;spacingLeft=34;spacingRight=4;whiteSpace=wrap;overflow=hidden;rotatable=0;points=[[0,0.5],[1,0.5]];portConstraint=eastwest;dropTarget=0;rounded=1;labelBackgroundColor=none;strokeColor=#FFFFFF;fontColor=#1A1A1A;" vertex="1" parent="abnOiXNKgmM2XyNFH_qa-53">
          <mxGeometry y="56" width="160" height="26" as="geometry" />
        </mxCell>
        <mxCell id="abnOiXNKgmM2XyNFH_qa-57" value="FK" style="shape=partialRectangle;top=0;left=0;bottom=0;html=1;fillColor=none;align=left;verticalAlign=top;spacingLeft=4;spacingRight=4;whiteSpace=wrap;overflow=hidden;rotatable=0;points=[];portConstraint=eastwest;part=1;rounded=1;labelBackgroundColor=none;strokeColor=#FFFFFF;fontColor=#1A1A1A;" vertex="1" connectable="0" parent="abnOiXNKgmM2XyNFH_qa-56">
          <mxGeometry width="30" height="26" as="geometry" />
        </mxCell>
        <mxCell id="abnOiXNKgmM2XyNFH_qa-72" value="CategoryID" style="shape=partialRectangle;top=0;left=0;right=0;bottom=0;html=1;align=left;verticalAlign=top;fillColor=none;spacingLeft=34;spacingRight=4;whiteSpace=wrap;overflow=hidden;rotatable=0;points=[[0,0.5],[1,0.5]];portConstraint=eastwest;dropTarget=0;rounded=1;labelBackgroundColor=none;strokeColor=#FFFFFF;fontColor=#1A1A1A;" vertex="1" parent="abnOiXNKgmM2XyNFH_qa-53">
          <mxGeometry y="82" width="160" height="26" as="geometry" />
        </mxCell>
        <mxCell id="abnOiXNKgmM2XyNFH_qa-73" value="" style="shape=partialRectangle;top=0;left=0;bottom=0;html=1;fillColor=none;align=left;verticalAlign=top;spacingLeft=4;spacingRight=4;whiteSpace=wrap;overflow=hidden;rotatable=0;points=[];portConstraint=eastwest;part=1;rounded=1;labelBackgroundColor=none;strokeColor=#FFFFFF;fontColor=#1A1A1A;" vertex="1" connectable="0" parent="abnOiXNKgmM2XyNFH_qa-72">
          <mxGeometry width="30" height="26" as="geometry" />
        </mxCell>
        <mxCell id="abnOiXNKgmM2XyNFH_qa-58" value="Ma_Name" style="shape=partialRectangle;top=0;left=0;right=0;bottom=0;html=1;align=left;verticalAlign=top;fillColor=none;spacingLeft=34;spacingRight=4;whiteSpace=wrap;overflow=hidden;rotatable=0;points=[[0,0.5],[1,0.5]];portConstraint=eastwest;dropTarget=0;rounded=1;labelBackgroundColor=none;strokeColor=#FFFFFF;fontColor=#1A1A1A;" vertex="1" parent="abnOiXNKgmM2XyNFH_qa-53">
          <mxGeometry y="108" width="160" height="26" as="geometry" />
        </mxCell>
        <mxCell id="abnOiXNKgmM2XyNFH_qa-59" value="" style="shape=partialRectangle;top=0;left=0;bottom=0;html=1;fillColor=none;align=left;verticalAlign=top;spacingLeft=4;spacingRight=4;whiteSpace=wrap;overflow=hidden;rotatable=0;points=[];portConstraint=eastwest;part=1;rounded=1;labelBackgroundColor=none;strokeColor=#FFFFFF;fontColor=#1A1A1A;" vertex="1" connectable="0" parent="abnOiXNKgmM2XyNFH_qa-58">
          <mxGeometry width="30" height="26" as="geometry" />
        </mxCell>
        <mxCell id="abnOiXNKgmM2XyNFH_qa-74" value="Ma_UnitPrice" style="shape=partialRectangle;top=0;left=0;right=0;bottom=0;html=1;align=left;verticalAlign=top;fillColor=none;spacingLeft=34;spacingRight=4;whiteSpace=wrap;overflow=hidden;rotatable=0;points=[[0,0.5],[1,0.5]];portConstraint=eastwest;dropTarget=0;rounded=1;labelBackgroundColor=none;strokeColor=#FFFFFF;fontColor=#1A1A1A;" vertex="1" parent="abnOiXNKgmM2XyNFH_qa-53">
          <mxGeometry y="134" width="160" height="26" as="geometry" />
        </mxCell>
        <mxCell id="abnOiXNKgmM2XyNFH_qa-75" value="" style="shape=partialRectangle;top=0;left=0;bottom=0;html=1;fillColor=none;align=left;verticalAlign=top;spacingLeft=4;spacingRight=4;whiteSpace=wrap;overflow=hidden;rotatable=0;points=[];portConstraint=eastwest;part=1;rounded=1;labelBackgroundColor=none;strokeColor=#FFFFFF;fontColor=#1A1A1A;" vertex="1" connectable="0" parent="abnOiXNKgmM2XyNFH_qa-74">
          <mxGeometry width="30" height="26" as="geometry" />
        </mxCell>
        <mxCell id="abnOiXNKgmM2XyNFH_qa-80" style="edgeStyle=orthogonalEdgeStyle;rounded=1;orthogonalLoop=1;jettySize=auto;html=1;exitX=0;exitY=0.5;exitDx=0;exitDy=0;entryX=0;entryY=0.5;entryDx=0;entryDy=0;labelBackgroundColor=none;strokeColor=#FFFFFF;fontColor=default;" edge="1" parent="1" source="abnOiXNKgmM2XyNFH_qa-16" target="abnOiXNKgmM2XyNFH_qa-27">
          <mxGeometry relative="1" as="geometry" />
        </mxCell>
        <mxCell id="abnOiXNKgmM2XyNFH_qa-82" style="edgeStyle=orthogonalEdgeStyle;rounded=1;orthogonalLoop=1;jettySize=auto;html=1;exitX=1;exitY=0.5;exitDx=0;exitDy=0;entryX=1;entryY=0.5;entryDx=0;entryDy=0;labelBackgroundColor=none;strokeColor=#FFFFFF;fontColor=default;" edge="1" parent="1" source="abnOiXNKgmM2XyNFH_qa-22" target="abnOiXNKgmM2XyNFH_qa-26">
          <mxGeometry relative="1" as="geometry" />
        </mxCell>
        <mxCell id="abnOiXNKgmM2XyNFH_qa-83" style="edgeStyle=orthogonalEdgeStyle;rounded=1;orthogonalLoop=1;jettySize=auto;html=1;exitX=0;exitY=0.5;exitDx=0;exitDy=0;entryX=0;entryY=0.5;entryDx=0;entryDy=0;labelBackgroundColor=none;strokeColor=#FFFFFF;fontColor=default;" edge="1" parent="1" source="abnOiXNKgmM2XyNFH_qa-38" target="abnOiXNKgmM2XyNFH_qa-56">
          <mxGeometry relative="1" as="geometry" />
        </mxCell>
      </root>
    </mxGraphModel>
  </diagram>
</mxfile>
